# 3ds Max Wavefront OBJ Exporter v0.97b - (c)2007 guruware
# File Created: 24.05.2017 00:12:54

mtllib nikelogo3.mtl

#
# object Shape1
#

v  -4.8704 0.0000 -2.5417
v  -4.9781 0.0000 -2.4323
v  -4.9781 1.0000 -2.4323
v  -4.8704 1.0000 -2.5417
v  -5.2556 0.0000 -2.1312
v  -5.2556 1.0000 -2.1312
v  -5.6350 0.0000 -1.6794
v  -5.6350 1.0000 -1.6794
v  -6.0478 0.0000 -1.1176
v  -6.0478 1.0000 -1.1176
v  -6.4260 0.0000 -0.4867
v  -6.4260 1.0000 -0.4867
v  -6.7013 0.0000 0.1726
v  -6.7013 1.0000 0.1726
v  -6.8056 0.0000 0.8195
v  -6.8056 1.0000 0.8195
v  -6.7168 0.0000 1.3737
v  -6.7168 1.0000 1.3737
v  -6.4730 0.0000 1.7864
v  -6.4730 1.0000 1.7864
v  -6.0961 0.0000 2.0634
v  -6.0961 1.0000 2.0634
v  -5.6080 0.0000 2.2104
v  -5.6080 1.0000 2.2104
v  -5.0304 0.0000 2.2334
v  -5.0304 1.0000 2.2334
v  -4.3852 0.0000 2.1382
v  -4.3852 1.0000 2.1382
v  -3.6944 0.0000 1.9306
v  -3.6944 1.0000 1.9306
v  6.8148 0.0000 -2.5139
v  6.8148 1.0000 -2.5139
v  -2.8889 0.0000 0.0510
v  -2.8889 1.0000 0.0510
v  -3.2237 0.0000 0.1670
v  -3.2237 1.0000 0.1670
v  -3.5551 0.0000 0.2653
v  -3.5551 1.0000 0.2653
v  -3.8799 0.0000 0.3279
v  -3.8799 1.0000 0.3279
v  -4.1947 0.0000 0.3371
v  -4.1947 1.0000 0.3371
v  -4.4963 0.0000 0.2750
v  -4.4963 1.0000 0.2750
v  -4.7813 0.0000 0.1238
v  -4.7813 1.0000 0.1238
v  -5.0463 0.0000 -0.1343
v  -5.0463 1.0000 -0.1343
v  -5.2474 0.0000 -0.4518
v  -5.2474 1.0000 -0.4518
v  -5.3516 0.0000 -0.7719
v  -5.3516 1.0000 -0.7719
v  -5.3716 0.0000 -1.0983
v  -5.3716 1.0000 -1.0983
v  -5.3206 0.0000 -1.4348
v  -5.3206 1.0000 -1.4348
v  -5.2114 0.0000 -1.7850
v  -5.2114 1.0000 -1.7850
v  -5.0570 0.0000 -2.1527
v  -5.0570 1.0000 -2.1527
# 60 vertices

vn -0.7127 0.0000 -0.7015
vn -0.7240 0.0000 -0.6898
vn -0.7507 0.0000 -0.6606
vn -0.7863 0.0000 -0.6179
vn -0.8327 0.0000 -0.5537
vn -0.8926 0.0000 -0.4509
vn -0.9617 0.0000 -0.2742
vn -1.0000 0.0000 -0.0005
vn -0.9407 0.0000 0.3393
vn -0.7416 0.0000 0.6708
vn -0.4468 0.0000 0.8946
vn -0.1654 0.0000 0.9862
vn 0.0534 0.0000 0.9986
vn 0.2175 0.0000 0.9761
vn 0.3392 0.0000 0.9407
vn 0.3895 0.0000 0.9210
vn -0.2555 0.0000 -0.9668
vn -0.3276 0.0000 -0.9448
vn -0.3060 0.0000 -0.9520
vn -0.2371 0.0000 -0.9715
vn -0.1096 0.0000 -0.9940
vn 0.0869 0.0000 -0.9962
vn 0.3386 0.0000 -0.9409
vn 0.5891 0.0000 -0.8081
vn 0.7765 0.0000 -0.6301
vn 0.9049 0.0000 -0.4256
vn 0.9824 0.0000 -0.1868
vn 0.9990 0.0000 0.0446
vn 0.9745 0.0000 0.2245
vn 0.9394 0.0000 0.3428
vn 0.9121 0.0000 0.4100
vn 0.9016 0.0000 0.4326
vn 0.0000 1.0000 -0.0000
vn 0.0000 -1.0000 -0.0000
# 34 vertex normals

g Shape1
usemtl METALCUADROS
s 2
f 1//1 2//2 3//2 4//1 
f 2//2 5//3 6//3 3//2 
f 5//3 7//4 8//4 6//3 
f 7//4 9//5 10//5 8//4 
f 9//5 11//6 12//6 10//5 
f 11//6 13//7 14//7 12//6 
f 13//7 15//8 16//8 14//7 
f 15//8 17//9 18//9 16//8 
f 17//9 19//10 20//10 18//9 
f 19//10 21//11 22//11 20//10 
f 21//11 23//12 24//12 22//11 
f 23//12 25//13 26//13 24//12 
f 25//13 27//14 28//14 26//13 
f 27//14 29//15 30//15 28//14 
f 29//15 31//16 32//16 30//15 
s 4
f 31//17 33//17 34//17 32//17 
s 8
f 33//18 35//19 36//19 34//18 
f 35//19 37//20 38//20 36//19 
f 37//20 39//21 40//21 38//20 
f 39//21 41//22 42//22 40//21 
f 41//22 43//23 44//23 42//22 
f 43//23 45//24 46//24 44//23 
f 45//24 47//25 48//25 46//24 
f 47//25 49//26 50//26 48//25 
f 49//26 51//27 52//27 50//26 
f 51//27 53//28 54//28 52//27 
f 53//28 55//29 56//29 54//28 
f 55//29 57//30 58//30 56//29 
f 57//30 59//31 60//31 58//30 
s 9
f 59//31 1//32 4//32 60//31 
s 1024
f 30//33 32//33 34//33 36//33 
f 60//33 4//33 3//33 6//33 
f 30//33 36//33 38//33 40//33 
f 58//33 60//33 6//33 8//33 
f 56//33 58//33 8//33 10//33 
f 54//33 56//33 10//33 52//33 
f 30//33 40//33 42//33 28//33 
f 52//33 10//33 12//33 50//33 
f 28//33 42//33 44//33 26//33 
f 26//33 44//33 46//33 24//33 
f 22//33 24//33 46//33 20//33 
f 18//33 20//33 46//33 16//33 
f 14//33 16//33 46//33 48//33 
f 12//33 14//33 48//33 50//33 
f 29//34 35//34 33//34 31//34 
f 59//34 5//34 2//34 1//34 
f 29//34 39//34 37//34 35//34 
f 57//34 7//34 5//34 59//34 
f 55//34 9//34 7//34 57//34 
f 53//34 51//34 9//34 55//34 
f 29//34 27//34 41//34 39//34 
f 51//34 49//34 11//34 9//34 
f 27//34 25//34 43//34 41//34 
f 25//34 23//34 45//34 43//34 
f 21//34 19//34 45//34 23//34 
f 17//34 15//34 45//34 19//34 
f 13//34 47//34 45//34 15//34 
f 11//34 49//34 47//34 13//34 
# 58 polygons

