# 3ds Max Wavefront OBJ Exporter v0.97b - (c)2007 guruware
# File Created: 24.05.2017 00:11:50

mtllib nikelogo2.mtl

#
# object Shape1
#

v  -4.3102 0.0000 1.7778
v  -3.4283 0.0000 1.7778
v  -3.4283 1.0000 1.7778
v  -4.3102 1.0000 1.7778
v  -2.8171 0.0000 0.1285
v  -2.8171 1.0000 0.1285
v  -2.8935 0.0000 1.8056
v  -2.8935 1.0000 1.8056
v  -2.0324 0.0000 1.8056
v  -2.0324 1.0000 1.8056
v  -0.7269 0.0000 -1.8056
v  -0.7269 1.0000 -1.8056
v  -1.6019 0.0000 -1.8056
v  -1.6019 1.0000 -1.8056
v  -2.1574 0.0000 -0.2951
v  -2.1574 1.0000 -0.2951
v  -2.0602 0.0000 -1.8056
v  -2.0602 1.0000 -1.8056
v  -2.9769 0.0000 -1.8056
v  -2.9769 1.0000 -1.8056
v  -1.8380 0.0000 1.8056
v  -0.9908 0.0000 1.8056
v  -0.9908 1.0000 1.8056
v  -1.8380 1.0000 1.8056
v  0.3287 0.0000 -1.8056
v  0.3287 1.0000 -1.8056
v  -0.5324 0.0000 -1.8056
v  -0.5324 1.0000 -1.8056
v  -0.7824 0.0000 1.7778
v  0.0833 0.0000 1.7778
v  0.0833 1.0000 1.7778
v  -0.7824 1.0000 1.7778
v  0.6389 0.0000 0.3148
v  0.6389 1.0000 0.3148
v  0.6620 0.0000 1.7778
v  0.6620 1.0000 1.7778
v  1.4722 0.0000 1.7778
v  1.4722 1.0000 1.7778
v  1.3981 0.0000 -0.2361
v  1.3981 1.0000 -0.2361
v  2.7176 0.0000 -1.8056
v  2.7176 1.0000 -1.8056
v  1.8704 0.0000 -1.8056
v  1.8704 1.0000 -1.8056
v  1.0324 0.0000 -0.8218
v  1.0324 1.0000 -0.8218
v  1.4120 0.0000 -1.8056
v  1.4120 1.0000 -1.8056
v  0.5231 0.0000 -1.8056
v  0.5231 1.0000 -1.8056
v  3.4329 0.0000 1.0671
v  2.5197 0.0000 1.0659
v  2.5197 1.0000 1.0659
v  3.4329 1.0000 1.0671
v  2.8287 0.0000 0.2222
v  2.8287 1.0000 0.2222
v  3.5694 0.0000 0.2222
v  3.5694 1.0000 0.2222
v  3.8009 0.0000 -0.4167
v  3.8009 1.0000 -0.4167
v  3.0694 0.0000 -0.4167
v  3.0694 1.0000 -0.4167
v  3.3287 0.0000 -1.1111
v  3.3287 1.0000 -1.1111
v  4.0787 0.0000 -1.1111
v  4.0787 1.0000 -1.1111
v  4.3102 0.0000 -1.8056
v  4.3102 1.0000 -1.8056
v  1.4120 0.0000 1.7778
v  1.4120 1.0000 1.7778
v  3.1620 0.0000 1.7778
v  3.1620 1.0000 1.7778
# 72 vertices

vn 0.0000 0.0000 1.0000
vn 0.9377 0.0000 0.3474
vn -0.9990 0.0000 -0.0455
vn 0.9404 0.0000 0.3400
vn 0.0000 0.0000 -1.0000
vn -0.9385 0.0000 -0.3452
vn 0.9979 0.0000 0.0642
vn -0.9372 0.0000 -0.3487
vn 0.9393 0.0000 0.3432
vn -0.9404 0.0000 -0.3400
vn 0.9349 0.0000 0.3550
vn -0.9999 0.0000 0.0158
vn 0.9993 0.0000 -0.0368
vn 0.7654 0.0000 0.6435
vn -0.7613 0.0000 -0.6484
vn 0.9330 0.0000 0.3600
vn -0.9396 0.0000 -0.3423
vn 0.0013 0.0000 -1.0000
vn 0.9390 0.0000 0.3439
vn 0.9402 0.0000 0.3406
vn 0.9368 0.0000 0.3497
vn 0.9487 0.0000 0.3163
vn 0.9344 0.0000 0.3561
vn 0.0000 1.0000 -0.0000
vn 0.0000 -1.0000 -0.0000
# 25 vertex normals

g Shape1
usemtl METALCUADROS
s 2
f 1//1 2//1 3//1 4//1 
s 4
f 2//2 5//2 6//2 3//2 
s 8
f 5//3 7//3 8//3 6//3 
s 16
f 7//1 9//1 10//1 8//1 
s 2
f 9//4 11//4 12//4 10//4 
s 4
f 11//5 13//5 14//5 12//5 
s 8
f 13//6 15//6 16//6 14//6 
s 16
f 15//7 17//7 18//7 16//7 
s 2
f 17//5 19//5 20//5 18//5 
s 5
f 19//8 1//8 4//8 20//8 
s 2
f 21//1 22//1 23//1 24//1 
s 4
f 22//9 25//9 26//9 23//9 
s 8
f 25//5 27//5 28//5 26//5 
s 17
f 27//10 21//10 24//10 28//10 
s 2
f 29//1 30//1 31//1 32//1 
s 4
f 30//11 33//11 34//11 31//11 
s 8
f 33//12 35//12 36//12 34//12 
s 16
f 35//1 37//1 38//1 36//1 
s 2
f 37//13 39//13 40//13 38//13 
s 4
f 39//14 41//14 42//14 40//14 
s 8
f 41//5 43//5 44//5 42//5 
s 16
f 43//15 45//15 46//15 44//15 
s 2
f 45//16 47//16 48//16 46//16 
s 4
f 47//5 49//5 50//5 48//5 
s 9
f 49//17 29//17 32//17 50//17 
s 2
f 51//18 52//18 53//18 54//18 
s 4
f 52//19 55//19 56//19 53//19 
s 8
f 55//1 57//1 58//1 56//1 
s 16
f 57//20 59//20 60//20 58//20 
s 2
f 59//5 61//5 62//5 60//5 
s 4
f 61//21 63//21 64//21 62//21 
s 8
f 63//1 65//1 66//1 64//1 
s 16
f 65//22 67//22 68//22 66//22 
s 2
f 67//5 41//5 42//5 68//5 
s 4
f 41//17 69//17 70//17 42//17 
s 8
f 69//1 71//1 72//1 70//1 
s 17
f 71//23 51//23 54//23 72//23 
s 1024
f 20//24 4//24 3//24 6//24 
f 10//24 12//24 14//24 16//24 
f 18//24 20//24 6//24 16//24 
f 10//24 16//24 6//24 8//24 
f 23//24 26//24 28//24 24//24 
f 40//24 42//24 44//24 46//24 
f 46//24 48//24 50//24 32//24 
f 46//24 32//24 31//24 34//24 
f 40//24 46//24 34//24 38//24 
f 38//24 34//24 36//24 
f 72//24 54//24 53//24 70//24 
f 42//24 70//24 53//24 56//24 
f 58//24 60//24 62//24 56//24 
f 42//24 56//24 62//24 64//24 
f 68//24 42//24 64//24 66//24 
f 19//25 5//25 2//25 1//25 
f 9//25 15//25 13//25 11//25 
f 17//25 15//25 5//25 19//25 
f 9//25 7//25 5//25 15//25 
f 22//25 21//25 27//25 25//25 
f 39//25 45//25 43//25 41//25 
f 45//25 29//25 49//25 47//25 
f 45//25 33//25 30//25 29//25 
f 39//25 37//25 33//25 45//25 
f 37//25 35//25 33//25 
f 71//25 69//25 52//25 51//25 
f 41//25 55//25 52//25 69//25 
f 57//25 55//25 61//25 59//25 
f 41//25 63//25 61//25 55//25 
f 67//25 65//25 63//25 41//25 
# 65 polygons - 2 triangles

